<svg xmlns="http://www.w3.org/2000/svg" width="54.925" height="34.584" viewBox="0 0 54.925 34.584"><defs><style>.a{fill:none;stroke:#666;}</style></defs><g transform="translate(0.509 0.5)"><g transform="translate(0)"><g transform="translate(12.659 5.105)"><path class="a" d="M87.673,37.99h-9.1a1.415,1.415,0,0,1-1.514-1.284v-4.35a1.415,1.415,0,0,1,1.514-1.284h9.1a1.415,1.415,0,0,1,1.514,1.284v4.35A1.415,1.415,0,0,1,87.673,37.99Zm-9.1-6.489a.993.993,0,0,0-1.086.856v4.35a.993.993,0,0,0,1.086.856h9.1a.993.993,0,0,0,1.086-.856v-4.35a.993.993,0,0,0-1.086-.856Z" transform="translate(-77.06 -31.073)"/><path class="a" d="M187.872,37.99h-9.1a1.414,1.414,0,0,1-1.514-1.284v-4.35a1.414,1.414,0,0,1,1.514-1.284h9.1a1.415,1.415,0,0,1,1.514,1.284v4.35A1.415,1.415,0,0,1,187.872,37.99Zm-9.1-6.489a.993.993,0,0,0-1.086.856v4.35a.993.993,0,0,0,1.086.856h9.1a.993.993,0,0,0,1.086-.856v-4.35a.993.993,0,0,0-1.086-.856Z" transform="translate(-160.799 -31.073)"/></g><path class="a" d="M53.693,137.689H49.2a.214.214,0,0,1-.214-.214V135.55H4.921v1.925a.214.214,0,0,1-.214.214H.215A.214.214,0,0,1,0,137.475V124.783a.214.214,0,0,1,.214-.214H53.693a.214.214,0,0,1,.214.214v12.692A.214.214,0,0,1,53.693,137.689Zm-4.278-.428h4.064V125H.429v12.265H4.493v-1.925a.214.214,0,0,1,.214-.214H49.2a.214.214,0,0,1,.214.214Z" transform="translate(-0.001 -104.105)"/><path class="a" d="M53.693,68.048H.214A.214.214,0,0,1,.049,67.7L9.369,56.5a.213.213,0,0,1,.164-.077h3.34a.214.214,0,1,1,0,.428H9.634L.67,67.621H53.236L44.272,56.854h-3.2a.214.214,0,1,1,0-.428h3.3a.215.215,0,0,1,.165.077L53.857,67.7a.214.214,0,0,1-.164.351Z" transform="translate(0 -47.156)"/><path class="a" d="M91.782,0H56.943a.214.214,0,0,0-.214.214v9.27a.214.214,0,0,0,.428,0V.428H91.568V9.27H88.413a.945.945,0,0,1-.035.428h3.4A.214.214,0,0,0,92,9.484V.214A.214.214,0,0,0,91.782,0Z" transform="translate(-47.409)"/><path class="a" d="M153.629,56.426h-4.681a.214.214,0,1,0,0,.428h4.715A.943.943,0,0,1,153.629,56.426Z" transform="translate(-124.3 -47.156)"/><path class="a" d="M53.693,163.625H.215a.214.214,0,0,1,0-.428H53.693a.214.214,0,1,1,0,.428Z" transform="translate(-0.001 -136.387)"/></g></g></svg>