<svg xmlns="http://www.w3.org/2000/svg" width="45.155" height="45.155" viewBox="0 0 45.155 45.155"><defs><style>.a{fill:#fff;}.b{fill:#739f7f;}</style></defs><path class="a" d="M42.663,45.155a2.492,2.492,0,0,0,2.492-2.492V2.492A2.492,2.492,0,0,0,42.663,0H2.492A2.492,2.492,0,0,0,0,2.492V42.663a2.492,2.492,0,0,0,2.492,2.492H42.663"/><path class="b" d="M116.3,77V59.514h5.87l.879-6.815H116.3V48.348c0-1.973.548-3.318,3.377-3.318l3.609,0v-6.1a48.238,48.238,0,0,0-5.258-.269c-5.2,0-8.765,3.176-8.765,9.008V52.7h-5.885v6.815h5.885V77H116.3" transform="translate(-85.142 -31.845)"/></svg>