<svg xmlns="http://www.w3.org/2000/svg" width="14.333" height="14.333" viewBox="0 0 14.333 14.333"><defs><style>.a{fill:#fff;}</style></defs><path class="a" d="M4.607,16.513H1.536A1.536,1.536,0,0,1,0,14.977V3.715A1.536,1.536,0,0,1,1.536,2.18H4.607A1.536,1.536,0,0,1,6.143,3.715V14.977A1.536,1.536,0,0,1,4.607,16.513Zm9.726-1.536V3.715A1.536,1.536,0,0,0,12.8,2.18H9.726A1.536,1.536,0,0,0,8.19,3.715V14.977a1.536,1.536,0,0,0,1.536,1.536H12.8A1.536,1.536,0,0,0,14.333,14.977Z" transform="translate(0 -2.18)"/></svg>