<svg xmlns="http://www.w3.org/2000/svg" width="45.283" height="45.283" viewBox="0 0 45.283 45.283"><defs><style>.a{fill:#fff;}</style></defs><path class="a" d="M26.721,8.159c6.046,0,6.762.023,9.149.132a12.532,12.532,0,0,1,4.2.78,7.5,7.5,0,0,1,4.3,4.3,12.531,12.531,0,0,1,.78,4.2c.109,2.388.132,3.1.132,9.149s-.023,6.762-.132,9.149a12.532,12.532,0,0,1-.78,4.2,7.5,7.5,0,0,1-4.3,4.3,12.532,12.532,0,0,1-4.2.78c-2.387.109-3.1.132-9.149.132s-6.762-.023-9.149-.132a12.531,12.531,0,0,1-4.2-.78,7.5,7.5,0,0,1-4.3-4.3,12.532,12.532,0,0,1-.78-4.2c-.109-2.388-.132-3.1-.132-9.149s.023-6.762.132-9.149a12.531,12.531,0,0,1,.78-4.2,7.5,7.5,0,0,1,4.3-4.3,12.531,12.531,0,0,1,4.2-.78c2.388-.109,3.1-.132,9.149-.132m0-4.08c-6.149,0-6.92.026-9.335.136a16.619,16.619,0,0,0-5.5,1.052,11.578,11.578,0,0,0-6.622,6.622,16.619,16.619,0,0,0-1.052,5.5c-.11,2.415-.136,3.186-.136,9.335s.026,6.92.136,9.335a16.619,16.619,0,0,0,1.052,5.5,11.578,11.578,0,0,0,6.622,6.622,16.619,16.619,0,0,0,5.5,1.052c2.415.11,3.186.136,9.335.136s6.92-.026,9.335-.136a16.619,16.619,0,0,0,5.5-1.052,11.578,11.578,0,0,0,6.622-6.622,16.619,16.619,0,0,0,1.052-5.5c.11-2.415.136-3.186.136-9.335s-.026-6.92-.136-9.335a16.619,16.619,0,0,0-1.052-5.5,11.578,11.578,0,0,0-6.622-6.622,16.619,16.619,0,0,0-5.5-1.052c-2.415-.11-3.186-.136-9.335-.136Z" transform="translate(-4.079 -4.079)"/><path class="a" d="M138.262,126.635a11.627,11.627,0,1,0,11.627,11.627A11.627,11.627,0,0,0,138.262,126.635Zm0,19.174a7.547,7.547,0,1,1,7.547-7.547A7.547,7.547,0,0,1,138.262,145.809Z" transform="translate(-115.62 -115.62)"/><ellipse class="a" cx="2.717" cy="2.717" rx="2.717" ry="2.717" transform="translate(32.011 7.838)"/></svg>