<svg xmlns="http://www.w3.org/2000/svg" width="44.601" height="59.468" viewBox="0 0 44.601 59.468"><defs><style>.a{fill:#739f7f;}.b{fill:#eee;}</style></defs><g transform="translate(-695 -1317)"><path class="a" d="M20.009,58.269C3.133,33.8,0,31.292,0,22.3a22.3,22.3,0,0,1,44.6,0c0,8.991-3.133,11.5-20.009,35.968a2.789,2.789,0,0,1-4.584,0Z" transform="translate(695 1317)"/><g transform="translate(701 1325)"><path class="b" d="M27.463,13.9c-1.684,2.591-4.58,2.4-7.015.8a4.709,4.709,0,0,0-2.991-3c-1.607-2.429-1.952-5.484.637-7.168L16,0,13.9,4.536c2.59,1.684,2.456,4.789.85,7.219a4.707,4.707,0,0,0-2.994,3c-2.433,1.6-5.537,1.741-7.221-.85L0,16l4.533,2.1c1.685-2.59,4.791-2.457,7.224-.851a4.7,4.7,0,0,0,2.991,2.991c1.608,2.432,1.74,5.54-.85,7.226L16,32l2.1-4.534c-2.59-1.685-2.244-4.774-.637-7.206a4.75,4.75,0,0,0,2.991-3.025c2.435-1.606,5.331-1.725,7.015.865L32,16ZM16,18.988A2.989,2.989,0,1,1,18.987,16,2.987,2.987,0,0,1,16,18.988Z"/><path class="b" d="M31.71,27.619A4.085,4.085,0,0,0,27.2,29.592a12.567,12.567,0,0,1-1.456-1.571,4.615,4.615,0,0,0,2.8-4.242c0-.167-.008-.327-.024-.488,2.583-1.6,5.22-4.925,6.362-10.208a.71.71,0,0,0-.211-.031s-6.12-.57-6.892,2.957a4.084,4.084,0,0,0,1.972,4.513,12.27,12.27,0,0,1-1.574,1.451,4.606,4.606,0,0,0-4.24-2.8c-.163,0-.326.009-.485.024-1.6-2.583-4.926-5.217-10.21-6.363a.94.94,0,0,0-.032.215s-.566,6.116,2.958,6.893a4.089,4.089,0,0,0,4.512-1.973,12.266,12.266,0,0,1,1.454,1.572,4.614,4.614,0,0,0-2.806,4.242,4.424,4.424,0,0,0,.025.485c-2.585,1.6-5.218,4.925-6.365,10.211a1.1,1.1,0,0,0,.215.032h0s6.118.566,6.893-2.958a4.082,4.082,0,0,0-1.972-4.511A12.347,12.347,0,0,1,19.7,25.58a4.616,4.616,0,0,0,4.242,2.808,4.17,4.17,0,0,0,.484-.028c1.6,2.587,4.927,5.22,10.213,6.365a.857.857,0,0,0,.031-.214v0S35.235,28.4,31.71,27.619ZM29.486,16.242c.381-1.535,3.288-1.914,4.1-1.992a16.318,16.318,0,0,1-2.514,4.67C30.385,18.494,29.166,17.535,29.486,16.242ZM16.4,18.231c-1.529-.379-1.911-3.287-1.99-4.1a16.236,16.236,0,0,1,4.671,2.516C18.654,17.329,17.7,18.549,16.4,18.231ZM18.39,31.319c-.377,1.529-3.287,1.909-4.1,1.986a16.017,16.017,0,0,1,2.516-4.667C17.491,29.064,18.71,30.019,18.39,31.319Zm5.55-4.6a2.94,2.94,0,1,1,2.939-2.938A2.94,2.94,0,0,1,23.94,26.717ZM28.8,30.911c.424-.685,1.384-1.9,2.682-1.583,1.53.378,1.911,3.288,1.991,4.1A16.27,16.27,0,0,1,28.8,30.911Z" transform="translate(-7.877 -7.78)"/></g></g></svg>