<svg xmlns="http://www.w3.org/2000/svg" width="38.984" height="38.776" viewBox="0 0 38.984 38.776"><defs><style>.a{fill:#666;stroke:#666;stroke-width:0.5px;}</style></defs><g transform="translate(0.25 0.25)"><g transform="translate(0 0.092)"><path class="a" d="M27.588,39.069H.4a.4.4,0,0,1-.311-.653L27.264,1.052l.324.235-.324-.236a.4.4,0,0,1,.725.236V38.668a.4.4,0,0,1-.4.4Zm-26.4-.8h26V2.518Z" transform="translate(0 -0.885)"/><path class="a" d="M130.215,203.281v-9.256l-6.732,9.256Zm.8-10.487v10.888a.4.4,0,0,1-.4.4H122.7a.4.4,0,0,1-.324-.637h0l7.906-10.871a.4.4,0,0,1,.738.218Z" transform="translate(-109.529 -172.401)"/><path class="a" d="M234.839,83.425a.4.4,0,0,0,0-.8H231.81a.4.4,0,0,0,0,.8Z" transform="translate(-207.251 -74.09)"/><path class="a" d="M234.839,118.455a.4.4,0,0,0,0-.8H231.81a.4.4,0,1,0,0,.8Z" transform="translate(-207.251 -105.463)"/><path class="a" d="M234.839,153.485a.4.4,0,0,0,0-.8H231.81a.4.4,0,1,0,0,.8Z" transform="translate(-207.251 -136.836)"/><path class="a" d="M234.839,188.515a.4.4,0,1,0,0-.8H231.81a.4.4,0,1,0,0,.8Z" transform="translate(-207.251 -168.209)"/><path class="a" d="M234.839,223.545a.4.4,0,0,0,0-.8H231.81a.4.4,0,0,0,0,.8Z" transform="translate(-207.251 -199.583)"/><path class="a" d="M234.839,258.574a.4.4,0,0,0,0-.8H231.81a.4.4,0,0,0,0,.8Z" transform="translate(-207.251 -230.955)"/><path class="a" d="M234.839,293.6a.4.4,0,0,0,0-.8H231.81a.4.4,0,1,0,0,.8Z" transform="translate(-207.251 -262.328)"/><path class="a" d="M234.839,328.634a.4.4,0,0,0,0-.8H231.81a.4.4,0,0,0,0,.8Z" transform="translate(-207.251 -293.701)"/></g><g transform="translate(30.817)"><path class="a" d="M295.6,0h7.266V38.276H295.2V0Zm6.464.8H296V37.474h6.063Z" transform="translate(-295.201)"/><rect class="a" width="3.851" height="0.802" transform="translate(1.908 4.909)"/><rect class="a" width="3.851" height="0.802" transform="translate(1.908 9.518)"/><rect class="a" width="3.851" height="0.802" transform="translate(1.908 14.128)"/><rect class="a" width="3.851" height="0.802" transform="translate(1.908 18.737)"/><rect class="a" width="3.851" height="0.802" transform="translate(1.908 23.347)"/><rect class="a" width="3.851" height="0.802" transform="translate(1.908 27.956)"/><rect class="a" width="3.851" height="0.802" transform="translate(1.908 32.566)"/></g></g></svg>