<svg xmlns="http://www.w3.org/2000/svg" width="72.57" height="43" viewBox="0 0 72.57 43"><defs><style>.a{fill:#fff;}</style></defs><g transform="translate(0 -20.082)"><g transform="translate(0 20.082)"><path class="a" d="M44.471,20.755a38.906,38.906,0,0,1,5.969,1.4,40.844,40.844,0,0,1,9.686,4.416,1.485,1.485,0,0,0,.742.214c3.566.015,7.131.01,10.695.013.287,0,.573.03.859.046,0,.07.01.1,0,.116-.166.256-.335.509-.5.764a21.876,21.876,0,0,0-2.854,5.942.685.685,0,0,0,.076.649A18.189,18.189,0,0,1,54.328,63.082a16.888,16.888,0,0,1-4.341-.557,18.206,18.206,0,0,1-8.913-5.26c-.324-.345-.629-.7-.974-1.094-1.3,1.936-2.577,3.84-3.886,5.794-1.3-1.948-2.564-3.834-3.822-5.712a.97.97,0,0,0-.129.067.593.593,0,0,0-.076.08,18.013,18.013,0,0,1-11.261,6.378,17.6,17.6,0,0,1-7.5-.421A18.209,18.209,0,0,1,.242,47.609a17.562,17.562,0,0,1,.326-7.186A18.272,18.272,0,0,1,3.4,34.28a.709.709,0,0,0,.081-.528A20.3,20.3,0,0,0,.93,28.271c-.275-.437-.605-.841-.91-1.26v-.146a1.544,1.544,0,0,0,.181.019q5.473,0,10.946,0a.926.926,0,0,0,.471-.152,39.315,39.315,0,0,1,8.165-3.963,44.372,44.372,0,0,1,6.338-1.718,50.773,50.773,0,0,1,6.3-.828A53.481,53.481,0,0,1,44.471,20.755ZM39.9,44.853A14.483,14.483,0,1,0,54.071,30.428,14.5,14.5,0,0,0,39.9,44.853ZM18.169,30.373A14.466,14.466,0,1,0,32.667,44.9,14.483,14.483,0,0,0,18.169,30.373Zm.719-3.78a18.478,18.478,0,0,1,17.4,15.791A18.411,18.411,0,0,1,53.417,26.675a41.192,41.192,0,0,0-16.136-3.362A44.682,44.682,0,0,0,18.887,26.593Z" transform="translate(0 -20.082)"/><path class="a" d="M70.6,41.311a8.972,8.972,0,1,1-8.993,8.962A8.941,8.941,0,0,1,70.6,41.311Zm5.849,8.962a5.864,5.864,0,0,0-11.729-.024,5.864,5.864,0,1,0,11.729.024Z" transform="translate(-16.249 -25.681)"/><path class="a" d="M21.192,41.311a8.972,8.972,0,1,1-9,8.953A8.937,8.937,0,0,1,21.192,41.311Zm5.842,8.943a5.868,5.868,0,0,0-11.735.018,5.868,5.868,0,1,0,11.735-.018Z" transform="translate(-3.215 -25.68)"/><path class="a" d="M72.761,49.443a2.973,2.973,0,1,1-2.98,3A2.975,2.975,0,0,1,72.761,49.443Z" transform="translate(-18.404 -27.826)"/><path class="a" d="M23.321,49.407a3,3,0,1,1,.009,6,3,3,0,1,1-.009-6Z" transform="translate(-5.359 -27.816)"/></g></g></svg>