<svg xmlns="http://www.w3.org/2000/svg" width="41.807" height="32.763" viewBox="0 0 41.807 32.763"><defs><style>.a{fill:#666;stroke:#707070;stroke-width:0.5px;}</style></defs><g transform="translate(0.25 0.25)"><g transform="translate(0 0)"><path class="a" d="M20.547,98.007a4.56,4.56,0,1,1,4.56-4.56A4.565,4.565,0,0,1,20.547,98.007Zm0-7.715A3.154,3.154,0,1,0,23.7,93.446,3.158,3.158,0,0,0,20.547,90.292Zm6.363.065a3.256,3.256,0,0,1-2.317-.959,5.686,5.686,0,0,0-1.85-1.25,5.9,5.9,0,0,0-4.4,0A5.706,5.706,0,0,0,16.5,89.4a3.274,3.274,0,0,1-4.629-4.631,12.291,12.291,0,0,1,17.356,0,3.274,3.274,0,0,1-2.314,5.59Zm-6.363-4.042A6.992,6.992,0,0,1,25.588,88.4a1.914,1.914,0,0,0,2.641,0,1.868,1.868,0,0,0,0-2.644,10.884,10.884,0,0,0-15.367,0,1.873,1.873,0,0,0,0,2.643,1.911,1.911,0,0,0,2.641,0,7,7,0,0,1,5.043-2.089ZM32.364,84.9a3.247,3.247,0,0,1-2.314-.96,13.394,13.394,0,0,0-4.355-2.924,13.673,13.673,0,0,0-10.3,0,13.378,13.378,0,0,0-4.355,2.925,3.274,3.274,0,0,1-4.63,0,3.282,3.282,0,0,1,0-4.63,20,20,0,0,1,28.267,0A3.274,3.274,0,0,1,32.364,84.9ZM20.547,78.6a14.7,14.7,0,0,1,10.5,4.347,1.91,1.91,0,0,0,2.641,0,1.872,1.872,0,0,0,0-2.642,18.6,18.6,0,0,0-26.279,0,1.872,1.872,0,0,0,0,2.642,1.912,1.912,0,0,0,2.641,0,14.692,14.692,0,0,1,10.5-4.348Zm17.27.846a3.25,3.25,0,0,1-2.314-.959,21.1,21.1,0,0,0-29.914,0,3.272,3.272,0,0,1-4.63,0,3.271,3.271,0,0,1,0-4.63,27.707,27.707,0,0,1,39.173,0,3.274,3.274,0,0,1-2.317,5.589Zm-17.27-8.562A22.392,22.392,0,0,1,36.5,77.495a1.913,1.913,0,0,0,2.642,0,1.872,1.872,0,0,0,0-2.642,26.3,26.3,0,0,0-37.185,0,1.865,1.865,0,0,0,0,2.641,1.911,1.911,0,0,0,2.641,0,22.385,22.385,0,0,1,15.952-6.609Z" transform="translate(0 -65.744)"/></g></g></svg>